<mxfile host="app.diagrams.net" modified="2021-02-03T09:28:54.658Z" agent="5.0 (Macintosh; Intel Mac OS X 10_15_7) AppleWebKit/537.36 (KHTML, like Gecko) Chrome/88.0.4324.96 Safari/537.36" etag="lxT08uqZ5XhbgQgl7jSx" version="14.2.9" type="github">
  <diagram id="TA9kZWug_r85C3clJezx" name="Page-1">
    <mxGraphModel dx="817" dy="487" grid="1" gridSize="10" guides="1" tooltips="1" connect="1" arrows="1" fold="1" page="1" pageScale="1" pageWidth="827" pageHeight="1169" math="0" shadow="0">
      <root>
        <mxCell id="0" />
        <mxCell id="1" parent="0" />
        <mxCell id="7_i-U9n6Cbf5A0pLLuEN-1" value="&lt;span style=&quot;color: rgb(199, 37, 78); font-family: &amp;quot;source code pro&amp;quot;, monospace; font-size: 15px; text-align: left; background-color: rgb(254, 254, 254);&quot;&gt;MAGIC_NUMBER&lt;/span&gt;" style="rounded=0;whiteSpace=wrap;html=1;fontSize=15;" vertex="1" parent="1">
          <mxGeometry x="130" y="190" width="120" height="60" as="geometry" />
        </mxCell>
        <mxCell id="7_i-U9n6Cbf5A0pLLuEN-2" value="&lt;span style=&quot;color: rgb(199, 37, 78); font-family: &amp;quot;source code pro&amp;quot;, monospace; font-size: 15px; text-align: left; background-color: rgb(254, 254, 254);&quot;&gt;PROTOCOL_VERSION&lt;/span&gt;" style="rounded=0;whiteSpace=wrap;html=1;fontSize=15;" vertex="1" parent="1">
          <mxGeometry x="250" y="190" width="150" height="60" as="geometry" />
        </mxCell>
        <mxCell id="7_i-U9n6Cbf5A0pLLuEN-9" value="" style="edgeStyle=orthogonalEdgeStyle;rounded=0;orthogonalLoop=1;jettySize=auto;html=1;" edge="1" parent="1" source="7_i-U9n6Cbf5A0pLLuEN-3" target="7_i-U9n6Cbf5A0pLLuEN-8">
          <mxGeometry relative="1" as="geometry" />
        </mxCell>
        <mxCell id="7_i-U9n6Cbf5A0pLLuEN-10" value="" style="edgeStyle=orthogonalEdgeStyle;rounded=0;orthogonalLoop=1;jettySize=auto;html=1;fontSize=15;" edge="1" parent="1" source="7_i-U9n6Cbf5A0pLLuEN-3" target="7_i-U9n6Cbf5A0pLLuEN-6">
          <mxGeometry relative="1" as="geometry" />
        </mxCell>
        <mxCell id="7_i-U9n6Cbf5A0pLLuEN-3" value="&lt;span style=&quot;color: rgb(199, 37, 78); font-family: &amp;quot;source code pro&amp;quot;, monospace; font-size: 15px; text-align: left; background-color: rgb(254, 254, 254);&quot;&gt;sys_info&lt;/span&gt;" style="rounded=0;whiteSpace=wrap;html=1;fontSize=15;" vertex="1" parent="1">
          <mxGeometry x="400" y="190" width="100" height="60" as="geometry" />
        </mxCell>
        <mxCell id="7_i-U9n6Cbf5A0pLLuEN-4" value="&lt;span style=&quot;color: rgb(199, 37, 78); font-family: &amp;quot;source code pro&amp;quot;, monospace; text-align: left; background-color: rgb(254, 254, 254); font-size: 15px;&quot;&gt;&lt;font style=&quot;font-size: 15px;&quot;&gt;storage信息&lt;/font&gt;&lt;/span&gt;" style="rounded=0;whiteSpace=wrap;html=1;fontSize=15;" vertex="1" parent="1">
          <mxGeometry x="500" y="190" width="160" height="60" as="geometry" />
        </mxCell>
        <mxCell id="7_i-U9n6Cbf5A0pLLuEN-5" value="&lt;span style=&quot;color: rgb(199, 37, 78); font-family: &amp;quot;source code pro&amp;quot;, monospace; font-size: 15px; text-align: left; background-color: rgb(254, 254, 254);&quot;&gt;storage数据&lt;/span&gt;" style="rounded=0;whiteSpace=wrap;html=1;fontSize=15;" vertex="1" parent="1">
          <mxGeometry x="660" y="190" width="120" height="60" as="geometry" />
        </mxCell>
        <mxCell id="7_i-U9n6Cbf5A0pLLuEN-6" value="&lt;font color=&quot;#ff3333&quot;&gt;pickle.dump/load&lt;/font&gt;" style="rounded=0;whiteSpace=wrap;html=1;fillColor=#d5e8d4;strokeColor=#82b366;fontSize=15;" vertex="1" parent="1">
          <mxGeometry x="130" y="130" width="530" height="60" as="geometry" />
        </mxCell>
        <mxCell id="7_i-U9n6Cbf5A0pLLuEN-7" value="&amp;nbsp;C++函数：&lt;br&gt;_write_file&lt;br&gt;_set_from_file" style="rounded=0;whiteSpace=wrap;html=1;fillColor=#dae8fc;strokeColor=#6c8ebf;fontSize=15;align=center;" vertex="1" parent="1">
          <mxGeometry x="660" y="130" width="120" height="60" as="geometry" />
        </mxCell>
        <mxCell id="7_i-U9n6Cbf5A0pLLuEN-8" value="&lt;font style=&quot;font-size: 16px&quot;&gt;save : persistent_id&lt;br&gt;load : persistent_load&lt;/font&gt;" style="rounded=0;whiteSpace=wrap;html=1;fillColor=#60a917;strokeColor=#2D7600;fontColor=#ffffff;align=left;" vertex="1" parent="1">
          <mxGeometry x="500" y="140" width="160" height="50" as="geometry" />
        </mxCell>
      </root>
    </mxGraphModel>
  </diagram>
</mxfile>
